<svg xmlns="http://www.w3.org/2000/svg" viewBox="0 0 512 512">
  <!--! Font Awesome Free 6.x - fa-wallet path -->
  <defs>
    <linearGradient id="g" x1="0%" y1="0%" x2="100%" y2="100%">
      <stop offset="0%" style="stop-color:#6C63FF"/>
      <stop offset="100%" style="stop-color:#00D4AA"/>
    </linearGradient>
  </defs>
  <path fill="url(#g)"
    d="M461.2 128H80c-8.84 0-16-7.16-16-16s7.16-16 16-16h384c8.84 0 16-7.16
       16-16C480 53.49 458.51 32 432 32H64C28.65 32 0 60.65 0 96v320c0 35.35
       28.65 64 64 64h397.2c28.15 0 50.8-21.53 50.8-48V176c0-26.47-22.65-48-50.8-48z
       M416 336c-17.67 0-32-14.33-32-32s14.33-32 32-32 32 14.33 32 32-14.33 32-32 32z"/>
</svg>
